<mxfile host="app.diagrams.net" modified="2024-01-18T14:15:11.427Z" agent="Mozilla/5.0 (Macintosh; Intel Mac OS X 10.15; rv:122.0) Gecko/20100101 Firefox/122.0" version="22.1.18" etag="FPsTL_jL9CjHeJIyH01o" type="github">
  <diagram name="Seite-1" id="QU6hmFJ-WWkUYz6A-Y7e">
    <mxGraphModel>
      <root>
        <mxCell id="0" />
        <mxCell id="1" parent="0" />
      </root>
    </mxGraphModel>
  </diagram>
</mxfile>
